<?xml version="1.0" encoding="utf-8"?>
<!-- Generator: Adobe Illustrator 25.4.1, SVG Export Plug-In . SVG Version: 6.00 Build 0)  -->
<svg version="1.0" id="Layer_1" xmlns="http://www.w3.org/2000/svg" xmlns:xlink="http://www.w3.org/1999/xlink" x="0px" y="0px"
	 viewBox="0 0 334 236.6" style="enable-background:new 0 0 334 236.6;" xml:space="preserve">
<style type="text/css">
	.st0{fill:#0BAEEC;}
	.st1{fill:#FFF240;}
	.st2{fill:#EC272B;}
	.st3{fill:none;}
</style>
<path class="st0" d="M163.3,55.1c0.7-2.6,1.3-5.2,2-7.8c1,0.9,1.9,1.9,2.4,3.2c2.4,3.6,4.9,7.2,7.4,10.8c0.8,1.4,1.6,2.8,2.6,4.1
	c0.7,0.7,1.3,1.4,1.8,2.2c7.8-0.2,15.5-0.2,23.3-0.3c-0.5,0.4-1,0.9-1.4,1.5c-1.4,2.2-3.1,4.2-4.3,6.5c-1.9,2.7-3.8,5.4-5.6,8.1
	c-0.3,0.7-0.8,1.2-1.5,1.6c-0.6,0.6-1,1.3-1.1,2.2c0.3,1.1,0.7,2.2,1.1,3.3c0.5,0.3,0.6,0.9,0.8,1.4c0.8,2.6,1.8,5.2,2.5,7.8
	c1.1,3.4,2.3,6.8,3.5,10.2c-2.1-0.7-4.2-1.5-6.2-2.2l-0.2-0.5l-0.5-0.2c-0.8-3-2-5.8-2.8-8.7c-0.7-2.1-1.4-4.2-2.1-6.2
	c1.5-2,2.9-4.1,4.2-6.3c0.6-0.8,1.3-1.6,2-2.3c1.7-2.4,3.3-4.8,5-7.1c0.9-1.2,1.5-2.7,2.4-3.9c-7.8,0.1-15.6,0.2-23.4,0.3
	c-2.1-3-4.1-6-6.2-9c-0.8-1.4-1.7-2.8-2.7-4.1C165.3,58.1,164.3,56.6,163.3,55.1 M148.7,74.1c1.2-0.6,2.5-1.1,3.8-1.4
	c-0.4,1.5-0.7,3-1.2,4.5c-3.6,1.2-7.2,2.5-10.9,3.5c-1-0.7-2-1.4-2.9-2.1l-0.6-0.6c3.2-1.1,6.6-2,9.8-3.1
	C147.4,74.8,148.1,74.5,148.7,74.1L148.7,74.1z"/>
<path class="st1" d="M149.7,63.7c0.9-3.8,2-7.6,3.1-11.3c1.5,1.6,2.9,3.4,4,5.4v0.3c-1,3.4-1.7,7-2.9,10.3c-0.7,1.4-1.2,2.8-1.5,4.3
	c-1.3,0.3-2.6,0.8-3.8,1.4c-0.6,0.4-1.3,0.6-2,0.8C147.5,71.2,148.7,67.5,149.7,63.7 M137.5,78.6c0.9,0.7,1.9,1.4,2.9,2.1
	c-2.3,0.8-4.7,1.5-7,2.3c-0.2,0.6,1,0.9,1.3,1.4c-2,0.5-4,1.3-5.9,2.2c-0.1-0.4-0.4-0.8-0.7-1l-3.8-2.7
	C128.7,81.3,133.1,80.2,137.5,78.6 M143.7,97.3c1.5,1.1,2.7,2.5,4.2,3.5c0,5.8,0,11.6,0,17.4c-1.4,1.1-2.8,2.2-4.2,3.3
	C143.7,113.4,143.6,105.3,143.7,97.3L143.7,97.3z"/>
<path d="M161.5,52.6l1.7,2.5c0.9,1.5,2,2.9,3.2,4.2c1,1.3,1.9,2.6,2.6,4.1c2.1,3,4.1,6,6.2,9c7.8-0.1,15.6-0.2,23.4-0.3
	c-0.9,1.2-1.6,2.7-2.4,3.9c-1.7,2.4-3.3,4.8-5,7.1c-0.7,0.7-1.4,1.5-2,2.3c-1.3,2.2-2.7,4.3-4.2,6.3c0.7,2.1,1.4,4.1,2.1,6.2
	c0.8,3,2,5.8,2.8,8.7l0.5,0.2l0.2,0.5c0.8,2.5,1.5,5.1,2.4,7.6c-2-0.8-4.2-1.2-6.2-2.1s-4.1-1.5-6.2-2.1l0.1-0.4
	c-3.4-1-6.7-2.2-10-3.3c-1.3,1.1-2.7,2.1-4,3.2l-0.4,0.6c-0.7,0.3-1.3,0.7-1.8,1.2c-3.3,2.6-6.7,5.2-10,7.9c-0.8,0.6-1.8,1-2.5,1.7
	c0-7.9,0-15.8-0.1-23.8c0.2-0.9-0.8-1.3-1.3-1.7c-3.4-2.4-6.6-5.1-10.3-7.2c-1.4-0.9-2.6-1.9-3.8-3c-0.6-0.6-1.3-1.1-2-1.6
	c-0.4-0.4-1.5-0.7-1.3-1.4c2.3-0.9,4.7-1.5,7-2.3c3.7-1,7.3-2.3,10.9-3.5c1.3-0.4,2.6-0.8,3.9-1.2c1.3-5.7,3.1-11.3,4.5-17
	c0.6-2.2,1.2-4.3,1.8-6.5 M123.4,123.1h9.2v52.3h-9.2C123.4,158,123.4,140.6,123.4,123.1 M207.4,127c3.1,0,6.1,0,9.2,0
	c0,3.6,0,7.2,0,10.8c2.8,0,5.6,0,8.5,0v7.1h-8.5c0,6.4,0,12.8,0,19.2c-0.1,1.5,0.6,3,1.9,3.7c2.2,1,4.8,0.6,7-0.1v7.4
	c-4,0.9-8.2,1.2-12.1-0.3c-1.5-0.6-2.8-1.6-3.8-2.9c-1.5-2.1-2.2-4.7-2.2-7.2c0-6.6,0-13.3,0-19.9h-7.3c0-2.4,0-4.8,0-7.1
	c2.4,0,4.8,0,7.2,0C207.3,134.1,207.3,130.5,207.4,127 M82.1,139.8c3.2-2.4,7.2-3.5,11.2-3.4c4,0.1,8.2,0.9,11.1,3.9
	c0-0.9,0-1.7,0-2.6c3,0,5.9,0,8.9,0c0,11.5,0,23,0,34.4c0,3.9-1.4,7.7-4,10.6c-1.1,1.7-2.7,3-4.6,3.8c-5.5,3-12.2,3.4-18.1,1.7
	c-2-0.5-3.7-1.7-5.6-2.5c-0.7-0.5-1.4-1-2.1-1.6l0.1-0.8c0.8-0.7,1.4-1.7,2.4-2.1c0.9-0.9,1.8-1.8,2.7-2.7c2.5,2.2,5.8,3.4,9.2,3.2
	c3.2,0.1,6.4-1.2,8.6-3.5c1.8-2.1,2.6-4.9,2.1-7.6l-0.1,0.7c-3,2.2-6.7,3.4-10.5,3.4c-4,0.1-7.9-1.1-11.1-3.4
	c-0.1-0.8-1.1-0.9-1.6-1.3c-3.3-2.6-5.5-6.3-6.3-10.5c-0.2-1.3-0.4-2.6-0.5-3.9c0.2-3.5,1.1-6.9,2.7-10.1
	C77.8,143.2,79.7,141.2,82.1,139.8 M86.2,146.7c-0.3,0.8-1.1,1.3-1.6,2c-3.6,4.8-3,11.5,1.4,15.6c4.3,3.6,10.6,3.7,14.9,0.1
	c4.4-3.9,5.1-10.5,1.7-15.4c-0.5-0.8-1.4-1.4-1.8-2.3C96.5,143.2,90.4,143.2,86.2,146.7 M176.8,137.4c3.6-1,7.5-0.6,10.9,1
	c1,0.5,1.7,1.3,2.8,1.7c3.3,2.9,4.4,7.4,4.4,11.6c0,7.9,0,15.8,0,23.6h-9.2c0-7.5,0-15.1,0-22.6c0-2.3-0.7-4.6-2.1-6.5
	c-2.1-2.1-5.4-2.2-8-1.4c-1.5,0.4-2.8,1.5-3.5,2.9c-1.8,2.5-2.3,5.7-2.3,8.8v18.9h-9.2c0-12.6,0-25.1,0-37.7h8.9c0,1.9,0,3.8,0,5.6
	C170.9,140.3,173.7,138.1,176.8,137.4 M239.8,138.4c3.9-1.7,8.2-2.1,12.3-1c3,0.8,5.7,2.3,7.8,4.5c-1.7,1.9-3.7,3.4-5.1,5.5
	c-1.4-2.1-4-3-6.4-3.3c-1.8-0.3-3.6,0.2-5,1.3c-1.2,1-1.5,2.7-0.8,4.1c0.9,1.3,2.5,1.9,3.9,2.4c3.7,1.4,7.8,2.2,10.7,5.1
	c1.1,1.2,2,2.6,2.4,4.2c0.6,1.6,0.8,3.2,0.7,4.9c-0.5,2.1-1.5,4.2-2.7,6c-2.9,3.2-7.3,4.2-11.5,4.4c-5,0.2-10-1.5-13.7-4.8
	c0-0.2,0.1-0.6,0.1-0.8c1.7-1.6,3.3-3.3,4.9-4.9c2.7,2.4,6.3,3.4,9.9,2.9c1.6-0.2,3-1.2,3.7-2.7l0.4,0.1c0.1-0.8,0.1-1.6,0-2.4
	l-0.4,0.1c-0.7-1.3-1.8-2.4-3.2-2.8c-1.7-0.7-3.4-1.3-5.2-1.9c0-0.1,0.1-0.3,0.1-0.4c-2.2-0.9-4.7-1.6-6.4-3.4c-2-2-3.1-4.7-2.9-7.5
	C233.2,143.7,235.9,139.9,239.8,138.4 M142.9,137.7h8.8c0,12.6,0,25.1,0,37.7h-8.9L142.9,137.7L142.9,137.7z"/>
<path class="st2" d="M157.4,55.8c0.8,1.1,1.5,2.2,2.3,3.3c-1.4,5.7-3.2,11.3-4.5,17c-1.3,0.4-2.6,0.7-3.9,1.2c0.5-1.5,0.8-3,1.2-4.5
	c0.3-1.5,0.8-3,1.5-4.3c1.2-3.4,1.8-6.9,2.8-10.3C157,57.3,157.2,56.6,157.4,55.8 M128.8,86.6c1.9-0.9,3.9-1.6,5.9-2.2
	c0.7,0.5,1.4,1,2,1.6c1.2,1.1,2.4,2.1,3.8,3c3.6,2.1,6.8,4.8,10.3,7.2c0.6,0.5,1.5,0.8,1.3,1.7c0,7.9,0,15.8,0.1,23.8
	c-0.6,0.4-1.1,1-1.6,1.6c-0.8,0.7-1.7,1.3-2.5,2c0-2.4,0-4.8,0-7.2c0-5.8,0-11.6,0-17.4c-1.6-1-2.8-2.4-4.2-3.5c-1-0.8-2-1.3-3.1-2
	l-7.4-5.4c-1.5-1.2-3.1-2.2-4.7-3.1L128.8,86.6 M166.9,110.3c1.3-1.1,2.7-2.1,4-3.2c3.3,1.2,6.6,2.3,10,3.3l-0.1,0.4
	c2.1,0.7,4.1,1.4,6.2,2.1c0.6,1.8,1.2,3.5,1.8,5.2c-3.9-1.3-7.7-2.8-11.7-4l-9.2-3.2C167.4,110.9,167.2,110.6,166.9,110.3
	L166.9,110.3z"/>
<rect x="67" y="18.3" class="st3" width="200" height="200"/>
</svg>
