<?xml version="1.0" encoding="utf-8"?>
<!-- Generator: Adobe Illustrator 25.4.1, SVG Export Plug-In . SVG Version: 6.00 Build 0)  -->
<svg version="1.0" id="katman_1" xmlns="http://www.w3.org/2000/svg" xmlns:xlink="http://www.w3.org/1999/xlink" x="0px" y="0px"
	 viewBox="0 0 1024 768" style="enable-background:new 0 0 1024 768;" xml:space="preserve">
<style type="text/css">
	.st0{fill:#6E5AEA;}
	.st1{fill:#180C60;}
</style>
<path class="st0" d="M687.5,508.8h93.8c17.5-37.7,27.7-79.8,27.7-124.4c0-162.5-132.6-294.6-296.5-294.6
	c-164,0-296.5,132.1-296.5,294.6s132.6,294.6,296.5,294.6c95.4,0,180.3-45,234.5-114.3h-59.6V508.8z M576.5,508.8h-64v-99.3h-82
	v99.3h-64V260h64v93.6h82V260h64V508.8z M631.2,253.9c15.5,0,28.1,12.6,28.1,28c0,15.4-12.6,28-28.1,28c-15.5,0-28.1-12.6-28.1-28
	C603,266.5,615.7,253.9,631.2,253.9z M659.3,508.8H603V322.4h56.3V508.8z"/>
<path class="st1" d="M687.5,508.8v55.9H747c13.5-17,24.9-36.1,34.3-55.9H687.5z"/>
</svg>
