<svg xmlns="http://www.w3.org/2000/svg" viewBox="0 0 60 60">
	<title>Loker.id</title>
	<g>
		<path fill="#F48537" d="M29.2,55.8c8.5-0.2,15.5-6.8,16.1-15.1H25.7c-2.8,0-5.1-2.3-5.1-5.1V0.1C12.2,0.9,5.7,7.9,5.7,16.5v22.9c0,9.1,7.4,16.5,16.5,16.5h3.4L29.2,55.8z"/>
		<path fill="#169CF0" d="M59.4,16.5v22.9c0,9.1-7.4,16.5-16.5,16.5h-5.4c5.7-2.9,9.6-8.6,10.1-15.2h0.1V16.9c0-2.8-2.3-5.1-5.1-5.1H23.7V0h19.2C52,0,59.4,7.4,59.4,16.5z M5.2,47.2L2.4,50c-2.3,2.3-2.3,6,0,8.3s6,2.3,8.3,0l2.5-2.5C9.7,53.9,6.8,50.9,5.2,47.2z"/>
	</g>
</svg>