<!-- created by svgstack.com | Attribution is required. --><svg width="201" height="125" viewBox="0 0 201 125" fill="none" xmlns="http://www.w3.org/2000/svg"><g clip-path="url(#clip0_105_1337)"><path d="M153.245 76.2736C147.595 75.959 142.103 74.2925 137.23 71.4141C132.358 68.5357 128.248 64.5298 125.245 59.733C128.867 30.8682 139.408 21.8952 153.354 21.8952C167.299 21.8952 177.894 32.706 177.894 48.9222C177.894 65.1384 167.083 75.9492 153.354 75.9492L153.245 76.2736ZM153.354 3.8411C143.511 3.44229 133.843 6.51523 126.037 12.5227C118.231 18.5302 112.785 27.0901 110.651 36.706C106.024 27.0118 102.523 16.8191 100.218 6.32761H65.7859V49.0303C65.7859 64.5438 58.7589 76.0573 44.975 76.0573C31.1912 76.0573 23.3534 64.5979 23.3534 49.0303V6.32761H3.56963V49.0303C3.12063 60.8638 7.19934 72.4233 14.975 81.3546C18.7704 85.4871 23.4066 88.759 28.572 90.9498C33.7373 93.1411 39.312 94.2006 44.921 94.0573C68.7589 94.0573 85.4616 75.733 85.4616 49.5168V20.6519C89.5097 36.1844 96.2022 50.9039 105.245 64.1655L94.6508 124.598H114.759L121.732 81.7871C124.04 83.7746 126.498 85.5817 129.083 87.1925C135.801 91.4352 143.522 93.8222 151.462 94.1114H153.299C159.205 94.173 165.063 93.0384 170.519 90.7768C175.976 88.5152 180.918 85.173 185.049 80.9509C189.18 76.7292 192.414 71.7152 194.557 66.2109C196.699 60.7065 197.705 54.8254 197.516 48.9222C197.653 43.0404 196.608 37.1909 194.439 31.7214C192.272 26.2519 189.026 21.274 184.897 17.0837C180.767 12.8933 175.837 9.57604 170.399 7.32896C164.962 5.08191 159.129 3.95093 153.245 4.00327" fill="#149E00"/></g><defs><clipPath id="clip0_105_1337"><rect width="200" height="124.324" fill="white" transform="translate(0.919922 0.275391)"/></clipPath></defs></svg> 